<svg width="26" height="26" viewBox="0 0 26 26" fill="none" xmlns="http://www.w3.org/2000/svg">
<rect width="26" height="26" rx="13" fill="white"/>
<path d="M16.3333 19.1667H9.66659C9.39325 19.1667 9.16659 18.94 9.16659 18.6667C9.16659 18.3933 9.39325 18.1667 9.66659 18.1667H16.3333C18.2399 18.1667 19.1666 17.24 19.1666 15.3333V10.6667C19.1666 8.75999 18.2399 7.83333 16.3333 7.83333H9.66659C7.75992 7.83333 6.83325 8.75999 6.83325 10.6667C6.83325 10.94 6.60659 11.1667 6.33325 11.1667C6.05992 11.1667 5.83325 10.94 5.83325 10.6667C5.83325 8.23333 7.23325 6.83333 9.66659 6.83333H16.3333C18.7666 6.83333 20.1666 8.23333 20.1666 10.6667V15.3333C20.1666 17.7667 18.7666 19.1667 16.3333 19.1667Z" fill="#067D52"/>
<path d="M13.0004 13.58C12.4404 13.58 11.8738 13.4066 11.4404 13.0533L9.35375 11.3866C9.14042 11.2133 9.10042 10.9 9.27376 10.6866C9.44709 10.4733 9.76042 10.4333 9.97375 10.6066L12.0604 12.2733C12.5671 12.68 13.4271 12.68 13.9338 12.2733L16.0204 10.6066C16.2338 10.4333 16.5537 10.4666 16.7204 10.6866C16.8937 10.9 16.8604 11.22 16.6404 11.3866L14.5537 13.0533C14.1271 13.4066 13.5604 13.58 13.0004 13.58Z" fill="#067D52"/>
<path d="M10.3333 16.5H6.33325C6.05992 16.5 5.83325 16.2733 5.83325 16C5.83325 15.7267 6.05992 15.5 6.33325 15.5H10.3333C10.6066 15.5 10.8333 15.7267 10.8333 16C10.8333 16.2733 10.6066 16.5 10.3333 16.5Z" fill="#067D52"/>
<path d="M8.33325 13.8333H6.33325C6.05992 13.8333 5.83325 13.6067 5.83325 13.3333C5.83325 13.06 6.05992 12.8333 6.33325 12.8333H8.33325C8.60659 12.8333 8.83325 13.06 8.83325 13.3333C8.83325 13.6067 8.60659 13.8333 8.33325 13.8333Z" fill="#067D52"/>
</svg>
