<svg width="24" height="25" viewBox="0 0 24 25" fill="none" xmlns="http://www.w3.org/2000/svg">
<path d="M22 16.5447C22 20.1847 19.83 22.3547 16.19 22.3547H15C14.45 22.3547 14 21.9047 14 21.3547V15.5847C14 15.3147 14.22 15.0847 14.49 15.0847L16.25 15.0547C16.39 15.0447 16.51 14.9447 16.54 14.8047L16.89 12.8947C16.92 12.7147 16.78 12.5447 16.59 12.5447L14.46 12.5747C14.18 12.5747 13.96 12.3547 13.95 12.0847L13.91 9.63474C13.91 9.47474 14.04 9.33475 14.21 9.33475L16.61 9.29474C16.78 9.29474 16.91 9.16475 16.91 8.99475L16.87 6.59473C16.87 6.42473 16.74 6.29474 16.57 6.29474L13.87 6.33475C12.21 6.36475 10.89 7.72474 10.92 9.38474L10.97 12.1347C10.98 12.4147 10.76 12.6347 10.48 12.6447L9.28 12.6647C9.11 12.6647 8.98001 12.7947 8.98001 12.9647L9.01001 14.8647C9.01001 15.0347 9.14 15.1647 9.31 15.1647L10.51 15.1447C10.79 15.1447 11.01 15.3647 11.02 15.6347L11.11 21.3347C11.12 21.8947 10.67 22.3547 10.11 22.3547H7.81C4.17 22.3547 2 20.1847 2 16.5347V8.16473C2 4.52473 4.17 2.35474 7.81 2.35474H16.19C19.83 2.35474 22 4.52473 22 8.16473V16.5447V16.5447Z" fill="#1B1D1E"/>
</svg>
