<svg width="24" height="25" viewBox="0 0 24 25" fill="none" xmlns="http://www.w3.org/2000/svg">
<path d="M16.19 2.35474H7.81C4.17 2.35474 2 4.52474 2 8.16474V16.5347C2 20.1847 4.17 22.3547 7.81 22.3547H16.18C19.82 22.3547 21.99 20.1847 21.99 16.5447V8.16474C22 4.52474 19.83 2.35474 16.19 2.35474ZM12 16.2347C9.86 16.2347 8.12 14.4947 8.12 12.3547C8.12 10.2147 9.86 8.47474 12 8.47474C14.14 8.47474 15.88 10.2147 15.88 12.3547C15.88 14.4947 14.14 16.2347 12 16.2347ZM17.92 7.23474C17.87 7.35474 17.8 7.46474 17.71 7.56474C17.61 7.65474 17.5 7.72474 17.38 7.77474C17.26 7.82474 17.13 7.85474 17 7.85474C16.73 7.85474 16.48 7.75474 16.29 7.56474C16.2 7.46474 16.13 7.35474 16.08 7.23474C16.03 7.11474 16 6.98474 16 6.85474C16 6.72474 16.03 6.59474 16.08 6.47474C16.13 6.34474 16.2 6.24474 16.29 6.14474C16.52 5.91474 16.87 5.80474 17.19 5.87474C17.26 5.88474 17.32 5.90474 17.38 5.93474C17.44 5.95474 17.5 5.98474 17.56 6.02474C17.61 6.05474 17.66 6.10474 17.71 6.14474C17.8 6.24474 17.87 6.34474 17.92 6.47474C17.97 6.59474 18 6.72474 18 6.85474C18 6.98474 17.97 7.11474 17.92 7.23474Z" fill="#1B1D1E"/>
</svg>
